<?xml version="1.0" encoding="utf-8"?>
<!-- Generator: Adobe Illustrator 19.1.0, SVG Export Plug-In . SVG Version: 6.00 Build 0)  -->
<!DOCTYPE svg PUBLIC "-//W3C//DTD SVG 1.1//EN" "http://www.w3.org/Graphics/SVG/1.1/DTD/svg11.dtd">
<svg version="1.1" id="Layer_1" xmlns="http://www.w3.org/2000/svg" xmlns:xlink="http://www.w3.org/1999/xlink" x="0px" y="0px"
	 viewBox="0 0 257.3 64.5" enable-background="new 0 0 257.3 64.5" xml:space="preserve">
<g>
	<path fill="#1C212A" d="M10.6,42.1c-1.2,0-2.1-0.1-2.9-0.4c-0.8-0.2-1.4-0.6-1.9-1c-0.5-0.4-0.9-1-1.2-1.6
		c-0.3-0.7-0.5-1.4-0.6-2.3c-0.1-0.6-0.2-1.3-0.3-2.4c-0.1-1-0.3-2.4-0.4-4.2c-0.2-1.8-0.4-4.1-0.7-6.9C2.2,20.5,1.9,17.1,1.5,13
		c-0.1-0.8-0.1-1.3,0-1.4c0.1-0.1,0.4-0.2,0.9-0.2h2.2c1.2,0,2.1,0.1,2.9,0.3c0.8,0.2,1.4,0.6,1.9,1c0.5,0.4,0.9,1,1.2,1.6
		c0.3,0.6,0.5,1.3,0.6,2.1c0.1,0.6,0.2,1.4,0.3,2.5c0.1,1.1,0.3,2.6,0.5,4.5c0.2,1.9,0.4,4.3,0.7,7.1c0.3,2.8,0.6,6.3,1,10.3
		c0,0.4,0,0.7-0.1,0.9c-0.1,0.1-0.4,0.2-0.9,0.2H10.6z M0.1,4.8c-0.3-1.5,0.1-2.7,1-3.5C2,0.4,3.4,0,5.2,0C6.8,0,8,0.3,8.9,1
		c0.8,0.7,1.4,1.5,1.5,2.6c0.2,1.4-0.1,2.5-0.9,3.4C8.6,7.9,7.2,8.4,5.2,8.4C2.2,8.4,0.5,7.2,0.1,4.8"/>
	<path fill="#1C212A" d="M35.4,35.5c-0.6,1.7-1.6,2.9-2.7,3.7c-1.2,0.8-2.8,1.2-4.8,1.2c-1.5,0-3-0.2-4.3-0.7
		c-1.4-0.5-2.6-1.2-3.6-2.3c-1.1-1-2-2.4-2.8-3.9c-0.8-1.6-1.4-3.5-1.7-5.7c-0.3-1.8-0.5-3.7-0.4-5.7c0-2,0.4-3.8,1.1-5.5
		c0.7-1.7,1.8-3.1,3.3-4.2c1.5-1.1,3.6-1.6,6.3-1.6c1.1,0,2.1,0.1,2.9,0.4c0.8,0.2,1.6,0.6,2.2,1c0.6,0.4,1.2,0.9,1.6,1.4
		c0.5,0.6,0.8,1.2,1.1,1.8c0,0,0-0.1,0-0.4c0-0.3-0.1-0.7-0.1-1.1c0-0.4-0.1-0.8-0.1-1.2c-0.1-0.4-0.1-0.6-0.1-0.8
		c0-0.4,0.2-0.6,0.6-0.6h2.6c1.9,0,3.4,0.4,4.4,1.2c1,0.8,1.7,2.3,2.1,4.5c0.1,0.3,0.2,1,0.3,2c0.1,1.1,0.3,2.3,0.5,3.8
		c0.2,1.5,0.3,3.1,0.5,4.9c0.2,1.8,0.3,3.6,0.5,5.4c0.1,1.8,0.2,3.6,0.3,5.2C45,40.3,45,41.7,45,43c0,1.3-0.3,2.5-0.7,3.7
		c-0.4,1.2-1.1,2.2-2.1,3.2c-1,0.9-2.3,1.7-4,2.2c-1.7,0.6-3.9,0.8-6.5,0.8c-2,0-3.7-0.2-5.3-0.6c-1.5-0.4-2.8-0.9-3.9-1.5
		c-1.1-0.6-1.9-1.3-2.6-2.1c-0.6-0.8-1-1.6-1.2-2.3c-0.1-0.7-0.1-1.3,0.1-1.8c0.2-0.5,0.5-0.9,0.9-1.3c0.4-0.3,0.9-0.6,1.5-0.8
		c0.5-0.2,1.1-0.3,1.6-0.3c0.6,0,1.1,0.2,1.5,0.6c0.4,0.4,0.8,0.8,1.2,1.3c0.5,0.5,1,0.9,1.8,1.3c0.7,0.4,1.8,0.6,3.2,0.6
		c2.5,0,4-0.9,4.7-2.7C35.9,41.4,36,38.9,35.4,35.5 M30.3,33c1.3,0,2.3-0.3,3-0.9c0.7-0.6,1.1-1.4,1.4-2.3c0.3-0.9,0.3-1.8,0.3-2.8
		c-0.1-1-0.2-1.8-0.3-2.5c-0.4-2.2-1-3.8-1.9-4.8c-0.9-0.9-2-1.4-3.3-1.4c-1.4,0-2.4,0.4-3,1.1c-0.6,0.7-1.1,1.6-1.3,2.6
		c-0.2,1-0.3,2-0.2,3.1c0.1,1,0.2,1.8,0.2,2.4c0.3,1.9,0.9,3.2,1.7,4.2C27.6,32.5,28.7,33,30.3,33"/>
	<path fill="#1C212A" d="M56,16.1c0.1,0.8,0.3,1.9,0.4,3.3c0.1,1.4,0.2,2.9,0.4,4.4c0.1,1.5,0.3,3,0.4,4.3c0.1,1.3,0.2,2.3,0.3,2.9
		c0.2,1.3,0.7,2.3,1.5,3c0.8,0.7,1.7,1.1,2.9,1.1c1,0,1.8-0.4,2.3-1.2c0.5-0.8,0.9-1.8,1.1-3.1c0.2-1.3,0.3-2.7,0.3-4.4
		c0-1.6-0.1-3.3-0.3-5c-0.2-1.7-0.3-3.3-0.5-4.9c-0.2-1.6-0.3-2.9-0.4-4.1c0-0.3,0-0.6,0.2-0.8c0.1-0.2,0.4-0.3,0.8-0.3h2
		c1.2,0,2.1,0.1,2.9,0.4c0.8,0.2,1.4,0.6,1.9,1c0.5,0.4,0.9,1,1.2,1.6c0.3,0.7,0.5,1.4,0.6,2.3c0.1,0.6,0.2,1.3,0.3,2.4
		c0.1,1,0.3,2.4,0.4,4.2c0.2,1.8,0.4,4.1,0.7,6.9c0.3,2.8,0.6,6.2,1.1,10.3c0.1,0.8,0.1,1.2,0,1.4c-0.1,0.1-0.4,0.2-0.9,0.2h-2.2
		c-1.1,0-2.1-0.1-2.8-0.4c-0.8-0.3-1.4-0.6-1.9-1c-0.5-0.4-0.9-0.9-1.2-1.5c-0.3-0.6-0.5-1.1-0.6-1.7c-0.4,1-0.9,1.8-1.4,2.5
		c-0.6,0.7-1.2,1.2-1.9,1.6c-0.7,0.4-1.4,0.7-2.1,0.8c-0.8,0.2-1.5,0.3-2.2,0.3c-1.4,0-2.7-0.2-3.9-0.7c-1.2-0.5-2.2-1.1-3.1-1.9
		c-0.9-0.8-1.6-1.7-2.2-2.8c-0.6-1.1-1-2.2-1.2-3.5c-0.1-0.5-0.2-1.3-0.3-2.4c-0.1-1.1-0.3-2.3-0.4-3.7c-0.1-1.4-0.3-2.8-0.5-4.4
		c-0.2-1.5-0.3-3-0.5-4.4c-0.1-1.4-0.3-2.6-0.4-3.6c-0.1-1-0.2-1.8-0.2-2.2c0-0.7,0-1.1,0.2-1.4c0.2-0.2,0.5-0.4,1.1-0.4h1.8
		c1.2,0,2.1,0.1,2.9,0.3c0.8,0.2,1.4,0.5,1.9,0.9c0.5,0.4,0.9,0.9,1.2,1.5C55.7,14.7,55.9,15.4,56,16.1"/>
	<path fill="#1C212A" d="M78.8,35.2c-0.6-3.3,0.5-6,3.1-7.9c2.7-1.9,6.9-2.9,12.8-3.1c0-0.4-0.1-0.8-0.1-1c0-0.3-0.1-0.6-0.2-1
		c-0.2-1.2-0.6-2.1-1.2-2.8c-0.6-0.7-1.6-1.1-3-1.1c-0.8,0-1.4,0.1-1.8,0.3c-0.4,0.2-0.8,0.5-1,0.9c-0.2,0.4-0.4,0.9-0.5,1.4
		c-0.1,0.6-0.1,1.2-0.2,1.8c0,0.3-0.1,0.5-0.4,0.6c-0.2,0.1-0.6,0.1-1.2,0.1c-3.8,0-5.9-1.4-6.4-4.3C78.6,18.1,78.7,17,79,16
		c0.4-1,1-1.9,1.9-2.7c0.9-0.8,2.1-1.4,3.7-1.8c1.5-0.4,3.3-0.7,5.5-0.7c4.1,0,7.3,0.9,9.4,2.6c2.2,1.7,3.5,4.1,4.1,7.2
		c0.1,0.4,0.2,1.1,0.2,2.2c0.1,1.1,0.2,2.2,0.3,3.3c0.1,1.2,0.2,2.3,0.2,3.3c0.1,1,0.2,1.8,0.2,2.2c0.2,0.9,0.4,1.6,0.9,2
		c0.4,0.4,0.8,0.7,1.3,0.8c0.5,0.1,0.9,0.3,1.2,0.3c0.3,0.1,0.5,0.3,0.6,0.6c0.1,0.8,0.2,1.7,0.1,2.5c-0.1,0.9-0.3,1.6-0.7,2.3
		c-0.4,0.7-1,1.3-1.8,1.7c-0.8,0.4-1.8,0.7-3.1,0.7c-1.8,0-3.2-0.4-4.2-1.3c-1-0.9-1.8-2-2.4-3.6c-0.7,1.3-1.6,2.4-2.9,3.4
		c-1.3,1-3,1.4-5.3,1.4c-1.1,0-2.2-0.1-3.2-0.4c-1-0.3-2-0.7-2.8-1.3c-0.8-0.6-1.5-1.4-2.1-2.3C79.5,37.7,79.1,36.5,78.8,35.2
		 M95.1,28.8c-1,0-1.9,0.1-2.8,0.2c-0.9,0.1-1.7,0.4-2.4,0.7c-0.7,0.3-1.2,0.7-1.5,1.3c-0.4,0.5-0.5,1.2-0.3,1.9
		c0.2,0.9,0.5,1.5,1.1,1.8c0.6,0.3,1.2,0.5,1.8,0.5c0.6,0,1.2-0.1,1.7-0.4c0.5-0.3,1-0.7,1.4-1.2c0.4-0.5,0.7-1.2,0.9-2
		C95.1,30.8,95.2,29.9,95.1,28.8"/>
	<path fill="#1C212A" d="M112.1,42.1c-0.4,0-0.6-0.2-0.7-0.6l-0.4-3c-0.1-1,0-2,0.5-2.9c0.5-0.9,1.2-2.1,2.2-3.5
		c0.9-1.4,2.1-3.1,3.5-5.2c1.4-2.1,2.9-4.8,4.6-8.2h-10.5c-0.3,0-0.5-0.1-0.6-0.2c-0.1-0.1-0.1-0.3-0.2-0.6l-0.3-2.6
		c0-0.5-0.1-1-0.1-1.4c0-0.5,0.1-0.9,0.3-1.3c0.2-0.4,0.6-0.7,1-0.9c0.5-0.2,1.1-0.3,2-0.3h19.1c0.2,0,0.4,0.1,0.6,0.2
		c0.2,0.1,0.3,0.3,0.4,0.6l0.3,3c0.1,0.9-0.1,1.9-0.6,3c-0.1,0.2-0.5,0.8-1.1,1.8c-0.7,1-1.5,2.3-2.5,3.8c-1,1.5-2,3.3-3.2,5.2
		c-1.2,1.9-2.3,3.9-3.4,5.9h11.9c0.2,0,0.4,0.1,0.6,0.2c0.2,0.1,0.3,0.3,0.4,0.6l0.3,2.7c0.1,1.1,0,2-0.4,2.7c-0.4,0.7-1.5,1-3.1,1
		H112.1z"/>
	<path fill="#1C212A" d="M143.8,32.1c1.6,0,2.7,0.4,3.5,1.1c0.8,0.8,1.3,1.8,1.6,3.2c0.1,0.6,0.1,1.2,0.1,1.9c0,0.7-0.2,1.4-0.5,2
		c-0.3,0.6-0.7,1.1-1.4,1.6c-0.6,0.4-1.5,0.6-2.7,0.6c-1.7,0-2.9-0.4-3.7-1.3c-0.7-0.9-1.2-2-1.5-3.3c-0.1-0.7-0.2-1.5-0.1-2.2
		c0.1-0.7,0.2-1.3,0.6-1.9c0.3-0.6,0.8-1,1.4-1.3C141.9,32.3,142.8,32.1,143.8,32.1"/>
	<path fill="#1C212A" d="M158.7,42.1c-1.2,0-2.1-0.1-2.9-0.4c-0.8-0.2-1.4-0.6-1.9-1c-0.5-0.4-0.9-1-1.2-1.6
		c-0.3-0.7-0.5-1.4-0.6-2.3c-0.1-0.6-0.2-1.3-0.3-2.4c-0.1-1-0.3-2.4-0.4-4.2c-0.2-1.8-0.4-4.1-0.7-6.9c-0.3-2.8-0.6-6.2-1.1-10.3
		c-0.1-0.8-0.1-1.3,0-1.4c0.1-0.1,0.4-0.2,0.9-0.2h2.2c1.2,0,2.1,0.1,2.9,0.3c0.8,0.2,1.4,0.6,1.9,1c0.5,0.4,0.9,1,1.2,1.6
		c0.3,0.6,0.5,1.3,0.6,2.1c0.1,0.6,0.2,1.4,0.3,2.5c0.1,1.1,0.3,2.6,0.5,4.5c0.2,1.9,0.4,4.3,0.7,7.1c0.3,2.8,0.6,6.3,1,10.3
		c0,0.4,0,0.7-0.1,0.9c-0.1,0.1-0.4,0.2-0.9,0.2H158.7z M148.2,4.8c-0.3-1.5,0.1-2.7,1-3.5c0.9-0.9,2.3-1.3,4.1-1.3
		c1.6,0,2.8,0.3,3.7,1c0.8,0.7,1.4,1.5,1.5,2.6c0.2,1.4-0.1,2.5-0.9,3.4c-0.9,0.9-2.3,1.4-4.2,1.4C150.3,8.4,148.6,7.2,148.2,4.8"/>
	<path fill="#1C212A" d="M179,42.6c-2.6,0-4.8-0.4-6.6-1.1c-1.8-0.7-3.3-1.7-4.6-3c-1.2-1.3-2.2-2.7-2.9-4.4
		c-0.7-1.7-1.2-3.5-1.6-5.4c-0.4-2.2-0.5-4.4-0.3-6.6c0.2-2.1,0.7-4,1.8-5.7c1-1.7,2.5-3,4.4-4c2-1,4.5-1.5,7.7-1.5
		c4.7,0,8.2,1.1,10.7,3.4c2.4,2.3,4,5.5,4.7,9.6c0.2,1.2,0.3,2.4,0.4,3.8c0.1,1.4,0,2.8-0.2,4.2c-0.2,1.4-0.6,2.7-1.2,4
		c-0.6,1.3-1.4,2.5-2.4,3.5c-1,1-2.4,1.8-4,2.4C183.3,42.3,181.3,42.6,179,42.6 M177.3,18.2c-1.4,0-2.5,0.4-3.2,1.1
		c-0.7,0.7-1.2,1.6-1.4,2.6c-0.2,1-0.3,2.1-0.3,3.2c0.1,1.1,0.2,2.1,0.3,2.9c0.4,2.5,1.1,4.3,2.1,5.4c1,1.2,2.2,1.7,3.7,1.7
		c1.3,0,2.3-0.4,3-1.2c0.7-0.8,1.2-1.8,1.4-3c0.3-1.2,0.4-2.4,0.3-3.6c-0.1-1.3-0.2-2.3-0.3-3.2c-0.3-1.9-0.9-3.3-1.8-4.4
		C180.2,18.8,179,18.2,177.3,18.2"/>
	<g>
		<path fill="#91B3DE" d="M242.7,18.2l2.4,24.7c4.2,2.1,8.8,3,12.2,3l-2.7-27.7c-1.1-11.1-9.4-17.1-18.9-17.1c-2,0-3.9,0.3-5.6,1
			C236.7,4.2,241.8,9.7,242.7,18.2z"/>
		<path fill="#1F4A7E" d="M226.3,53.6l-3.5-35.4c-0.5-4.8-2.3-8.6-4.9-11.4l-0.3-0.3c-1.8-1.8-4-3.2-6.4-4.1
			c-2.3-0.9-4.8-1.3-7.3-1.3c-5.6,0-10.2,2.6-13,6.6c0.7-0.8,1.7-1.3,2.8-1.3c2.7,0,6.1,2.5,6.9,10.7c0.4,3.6,2.8,28.5,2.8,28.5
			c1.3,13.5,15.8,18.8,24,18.8L226.3,53.6z"/>
		<path fill="#5382BC" d="M242.1,42.9l-2.4-24.7c-0.8-8.5-6-14-12.6-16.1c-2-0.6-4.1-1-6.3-1c-2.4,0-4.5,0.5-6.5,1.3
			c2.4,0.9,4.6,2.3,6.4,4.1c0.1,0.1,0.2,0.2,0.3,0.3c2.7,2.8,4.5,6.6,4.9,11.4l3.5,35.4c4.7,2.9,10.2,4.1,14.2,4.1L242.1,42.9z"/>
	</g>
</g>
</svg>
